<svg width="1080" height="1080" viewBox="0 0 1080 1080" fill="none" xmlns="http://www.w3.org/2000/svg">
<g filter="url(#filter0_d_2580_32)">
<path d="M90.7969 592.559L251.439 427.883C258.596 421.519 264.163 414.359 275.297 414.359C286.431 414.359 292.793 421.519 299.155 427.883L459.797 592.559H385.838C380.271 592.559 376.295 590.173 369.933 583.808L287.226 495.504C283.218 490.914 279.218 486.745 275.297 486.753C271.575 486.753 267.527 490.492 263.368 495.504L180.661 583.808C176.271 588.733 170.999 591.708 164.756 592.559H90.7969Z" fill="url(#paint0_linear_2580_32)"/>
</g>
<g filter="url(#filter1_d_2580_32)">
<path d="M251.471 427.883C258.627 421.519 264.193 414.359 275.325 414.359C286.458 414.359 292.819 421.519 299.18 427.883L459.801 592.559H385.852C380.285 592.559 376.31 590.173 369.949 583.808L287.253 495.504C253.509 462.008 235.408 445.056 224.035 456.509L223.641 456.921C223.771 456.78 223.903 456.642 224.035 456.509L251.471 427.883Z" fill="url(#paint1_linear_2580_32)"/>
</g>
<g filter="url(#filter2_d_2580_32)">
<path d="M494.041 592.189C486.878 592.189 482.898 589.008 477.326 583.441L369.078 473.604L369.078 414.359H417.495C427.182 414.852 431.958 419.624 431.56 429.381V497.683C431.958 507.886 437.537 513.302 448.386 513.453H513.144C527.471 513.453 530.655 516.634 540.206 526.972C554.533 542.876 562.492 549.238 580.799 549.238H669.945C681.088 549.238 692.231 544.467 692.231 532.196V486.415L761.478 546.869L722.119 583.433C715.178 589.588 705.181 592.459 692.231 592.181H494.041V592.189Z" fill="url(#paint2_linear_2580_32)"/>
</g>
<g filter="url(#filter3_d_2580_32)">
<path d="M580.93 514.884V485.596C580.93 471.95 585.707 463.208 597.68 463.208H670.093C682.035 463.208 689.996 466.387 697.957 474.335L733.781 506.292L771.198 474.668L734.577 440.151C723.432 429.819 709.898 414.719 692.384 414.719H580.93C564.212 414.719 556.251 425.051 547.072 433.793L477.438 504.003H523.611C530.776 504.528 537.145 508.502 541.786 513.27C558.639 529.961 570.581 542.677 580.93 539.514V514.884Z" fill="url(#paint3_linear_2580_32)"/>
</g>
<g filter="url(#filter4_d_2580_32)">
<path d="M742.398 514.584L811.606 578.186C821.151 587.763 825.924 592.536 839.447 592.56L871.267 592.544H922.973L842.598 520.955L836.266 514.592C829.902 506.845 847.243 494.42 858.937 486.164L988.998 389.52L871.267 414.361C856.153 417.542 848.198 419.929 839.447 427.883L742.398 514.584Z" fill="url(#paint4_linear_2580_32)"/>
</g>
<g filter="url(#filter5_d_2580_32)">
<path d="M858.937 486.186C847.243 494.444 784.161 547.448 787.741 556.2L742.398 514.613L839.447 427.892C848.198 419.936 856.153 417.549 871.267 414.366L988.998 389.52L858.937 486.186Z" fill="url(#paint5_linear_2580_32)"/>
</g>
<g filter="url(#filter6_i_2580_32)">
<path d="M230.477 640.594V681.61C230.477 687.352 235.442 690.634 243.717 690.634H294.197V681.61H249.51C246.2 681.61 243.833 680.24 243.717 677.509V640.594H230.477Z" fill="url(#paint6_linear_2580_32)"/>
</g>
<g filter="url(#filter7_i_2580_32)">
<path d="M374.366 648.651C382.129 637.95 396.946 637.95 403.301 648.651L432.343 690.633H416.702L408.471 677.462H368.958L360.726 690.633H345.086L374.366 648.651ZM391.184 651.943C389.57 649.803 387.998 649.647 386.491 651.943L374.72 669.23H402.708L391.184 651.943Z" fill="url(#paint7_linear_2580_32)"/>
</g>
<g filter="url(#filter8_i_2580_32)">
<path d="M551.602 648.797V640.594H500.585C494.825 640.594 488.242 644.695 488.242 648.797V661.102C488.242 666.024 494.002 669.305 500.585 669.305H533.87C536.791 669.305 539.259 671.766 539.259 675.236C539.259 679.149 536.791 681.61 533.935 681.61H488.242V690.634H539.259C545.019 690.634 551.602 685.712 551.602 681.61V669.305C551.602 665.204 544.196 661.102 539.259 661.102H505.226C502.231 661.102 500.585 657.821 500.585 655.269C500.585 651.258 502.231 648.797 505.432 648.797H551.602Z" fill="url(#paint8_linear_2580_32)"/>
</g>
<g filter="url(#filter9_i_2580_32)">
<path d="M602 640.594V648.797H624.236V690.634H638.237V648.797H662.12V640.594H602Z" fill="url(#paint9_linear_2580_32)"/>
</g>
<g filter="url(#filter10_i_2580_32)">
<path d="M847.879 648.797V640.594H795.463C788.911 640.594 782.359 647.156 782.359 653.178V677.509C782.359 684.071 788.092 690.634 795.463 690.634H847.879V681.61H802.556C797.92 681.61 795.463 679.149 795.463 675.376V657.082C795.463 652.07 798.739 648.789 803.883 648.789H847.879V648.797Z" fill="url(#paint10_linear_2580_32)"/>
</g>
<g filter="url(#filter11_i_2580_32)">
<path d="M973.158 640.594V648.797H922.361C919.592 649.617 917.119 652.078 917.119 655.13C917.119 659.461 919.592 661.102 922.064 661.102H959.972C965.741 661.102 973.158 666.024 973.158 669.305V681.61C973.158 684.891 965.741 690.634 959.972 690.634H904.758V681.61H954.484C958.324 681.61 959.972 678.329 959.972 675.605C959.972 670.946 958.324 669.305 953.75 669.305H917.119C910.526 669.305 904.758 666.024 904.758 661.102V650.265C904.758 645.516 910.526 640.594 917.119 640.594H973.158Z" fill="url(#paint11_linear_2580_32)"/>
</g>
<g filter="url(#filter12_i_2580_32)">
<path d="M147.518 640.422C153.28 640.422 160.689 644.538 160.689 648.653V664.294C160.689 667.587 154.926 672.526 147.518 672.526H104.713V690.636H90.7188V640.422H147.518ZM104.712 648.652V664.293H141.557C148.34 664.293 149.164 648.652 141.772 648.652H104.712Z" fill="url(#paint12_linear_2580_32)"/>
</g>
<g filter="url(#filter13_i_2580_32)">
<rect width="14.04" height="50.04" transform="translate(714.68 640.594)" fill="url(#paint13_linear_2580_32)"/>
</g>
<defs>
<filter id="filter0_d_2580_32" x="86.7969" y="414.359" width="377" height="186.199" filterUnits="userSpaceOnUse" color-interpolation-filters="sRGB">
<feFlood flood-opacity="0" result="BackgroundImageFix"/>
<feColorMatrix in="SourceAlpha" type="matrix" values="0 0 0 0 0 0 0 0 0 0 0 0 0 0 0 0 0 0 127 0" result="hardAlpha"/>
<feOffset dy="4"/>
<feGaussianBlur stdDeviation="2"/>
<feComposite in2="hardAlpha" operator="out"/>
<feColorMatrix type="matrix" values="0 0 0 0 0 0 0 0 0 0 0 0 0 0 0 0 0 0 0.25 0"/>
<feBlend mode="normal" in2="BackgroundImageFix" result="effect1_dropShadow_2580_32"/>
<feBlend mode="normal" in="SourceGraphic" in2="effect1_dropShadow_2580_32" result="shape"/>
</filter>
<filter id="filter1_d_2580_32" x="219.641" y="414.359" width="244.156" height="186.199" filterUnits="userSpaceOnUse" color-interpolation-filters="sRGB">
<feFlood flood-opacity="0" result="BackgroundImageFix"/>
<feColorMatrix in="SourceAlpha" type="matrix" values="0 0 0 0 0 0 0 0 0 0 0 0 0 0 0 0 0 0 127 0" result="hardAlpha"/>
<feOffset dy="4"/>
<feGaussianBlur stdDeviation="2"/>
<feComposite in2="hardAlpha" operator="out"/>
<feColorMatrix type="matrix" values="0 0 0 0 0 0 0 0 0 0 0 0 0 0 0 0 0 0 0.25 0"/>
<feBlend mode="normal" in2="BackgroundImageFix" result="effect1_dropShadow_2580_32"/>
<feBlend mode="normal" in="SourceGraphic" in2="effect1_dropShadow_2580_32" result="shape"/>
</filter>
<filter id="filter2_d_2580_32" x="365.078" y="414.359" width="400.398" height="185.84" filterUnits="userSpaceOnUse" color-interpolation-filters="sRGB">
<feFlood flood-opacity="0" result="BackgroundImageFix"/>
<feColorMatrix in="SourceAlpha" type="matrix" values="0 0 0 0 0 0 0 0 0 0 0 0 0 0 0 0 0 0 127 0" result="hardAlpha"/>
<feOffset dy="4"/>
<feGaussianBlur stdDeviation="2"/>
<feComposite in2="hardAlpha" operator="out"/>
<feColorMatrix type="matrix" values="0 0 0 0 0 0 0 0 0 0 0 0 0 0 0 0 0 0 0.25 0"/>
<feBlend mode="normal" in2="BackgroundImageFix" result="effect1_dropShadow_2580_32"/>
<feBlend mode="normal" in="SourceGraphic" in2="effect1_dropShadow_2580_32" result="shape"/>
</filter>
<filter id="filter3_d_2580_32" x="473.438" y="414.719" width="301.758" height="133.281" filterUnits="userSpaceOnUse" color-interpolation-filters="sRGB">
<feFlood flood-opacity="0" result="BackgroundImageFix"/>
<feColorMatrix in="SourceAlpha" type="matrix" values="0 0 0 0 0 0 0 0 0 0 0 0 0 0 0 0 0 0 127 0" result="hardAlpha"/>
<feOffset dy="4"/>
<feGaussianBlur stdDeviation="2"/>
<feComposite in2="hardAlpha" operator="out"/>
<feColorMatrix type="matrix" values="0 0 0 0 0 0 0 0 0 0 0 0 0 0 0 0 0 0 0.25 0"/>
<feBlend mode="normal" in2="BackgroundImageFix" result="effect1_dropShadow_2580_32"/>
<feBlend mode="normal" in="SourceGraphic" in2="effect1_dropShadow_2580_32" result="shape"/>
</filter>
<filter id="filter4_d_2580_32" x="738.398" y="389.52" width="254.602" height="211.039" filterUnits="userSpaceOnUse" color-interpolation-filters="sRGB">
<feFlood flood-opacity="0" result="BackgroundImageFix"/>
<feColorMatrix in="SourceAlpha" type="matrix" values="0 0 0 0 0 0 0 0 0 0 0 0 0 0 0 0 0 0 127 0" result="hardAlpha"/>
<feOffset dy="4"/>
<feGaussianBlur stdDeviation="2"/>
<feComposite in2="hardAlpha" operator="out"/>
<feColorMatrix type="matrix" values="0 0 0 0 0 0 0 0 0 0 0 0 0 0 0 0 0 0 0.25 0"/>
<feBlend mode="normal" in2="BackgroundImageFix" result="effect1_dropShadow_2580_32"/>
<feBlend mode="normal" in="SourceGraphic" in2="effect1_dropShadow_2580_32" result="shape"/>
</filter>
<filter id="filter5_d_2580_32" x="738.398" y="389.52" width="254.602" height="174.68" filterUnits="userSpaceOnUse" color-interpolation-filters="sRGB">
<feFlood flood-opacity="0" result="BackgroundImageFix"/>
<feColorMatrix in="SourceAlpha" type="matrix" values="0 0 0 0 0 0 0 0 0 0 0 0 0 0 0 0 0 0 127 0" result="hardAlpha"/>
<feOffset dy="4"/>
<feGaussianBlur stdDeviation="2"/>
<feComposite in2="hardAlpha" operator="out"/>
<feColorMatrix type="matrix" values="0 0 0 0 0 0 0 0 0 0 0 0 0 0 0 0 0 0 0.25 0"/>
<feBlend mode="normal" in2="BackgroundImageFix" result="effect1_dropShadow_2580_32"/>
<feBlend mode="normal" in="SourceGraphic" in2="effect1_dropShadow_2580_32" result="shape"/>
</filter>
<filter id="filter6_i_2580_32" x="230.477" y="640.594" width="63.7188" height="54.0391" filterUnits="userSpaceOnUse" color-interpolation-filters="sRGB">
<feFlood flood-opacity="0" result="BackgroundImageFix"/>
<feBlend mode="normal" in="SourceGraphic" in2="BackgroundImageFix" result="shape"/>
<feColorMatrix in="SourceAlpha" type="matrix" values="0 0 0 0 0 0 0 0 0 0 0 0 0 0 0 0 0 0 127 0" result="hardAlpha"/>
<feOffset dy="4"/>
<feGaussianBlur stdDeviation="2"/>
<feComposite in2="hardAlpha" operator="arithmetic" k2="-1" k3="1"/>
<feColorMatrix type="matrix" values="0 0 0 0 0 0 0 0 0 0 0 0 0 0 0 0 0 0 0.25 0"/>
<feBlend mode="normal" in2="shape" result="effect1_innerShadow_2580_32"/>
</filter>
<filter id="filter7_i_2580_32" x="345.086" y="640.625" width="87.2578" height="54.0078" filterUnits="userSpaceOnUse" color-interpolation-filters="sRGB">
<feFlood flood-opacity="0" result="BackgroundImageFix"/>
<feBlend mode="normal" in="SourceGraphic" in2="BackgroundImageFix" result="shape"/>
<feColorMatrix in="SourceAlpha" type="matrix" values="0 0 0 0 0 0 0 0 0 0 0 0 0 0 0 0 0 0 127 0" result="hardAlpha"/>
<feOffset dy="4"/>
<feGaussianBlur stdDeviation="2"/>
<feComposite in2="hardAlpha" operator="arithmetic" k2="-1" k3="1"/>
<feColorMatrix type="matrix" values="0 0 0 0 0 0 0 0 0 0 0 0 0 0 0 0 0 0 0.25 0"/>
<feBlend mode="normal" in2="shape" result="effect1_innerShadow_2580_32"/>
</filter>
<filter id="filter8_i_2580_32" x="488.242" y="640.594" width="63.3594" height="54.0391" filterUnits="userSpaceOnUse" color-interpolation-filters="sRGB">
<feFlood flood-opacity="0" result="BackgroundImageFix"/>
<feBlend mode="normal" in="SourceGraphic" in2="BackgroundImageFix" result="shape"/>
<feColorMatrix in="SourceAlpha" type="matrix" values="0 0 0 0 0 0 0 0 0 0 0 0 0 0 0 0 0 0 127 0" result="hardAlpha"/>
<feOffset dy="4"/>
<feGaussianBlur stdDeviation="2"/>
<feComposite in2="hardAlpha" operator="arithmetic" k2="-1" k3="1"/>
<feColorMatrix type="matrix" values="0 0 0 0 0 0 0 0 0 0 0 0 0 0 0 0 0 0 0.25 0"/>
<feBlend mode="normal" in2="shape" result="effect1_innerShadow_2580_32"/>
</filter>
<filter id="filter9_i_2580_32" x="602" y="640.594" width="60.1172" height="54.0391" filterUnits="userSpaceOnUse" color-interpolation-filters="sRGB">
<feFlood flood-opacity="0" result="BackgroundImageFix"/>
<feBlend mode="normal" in="SourceGraphic" in2="BackgroundImageFix" result="shape"/>
<feColorMatrix in="SourceAlpha" type="matrix" values="0 0 0 0 0 0 0 0 0 0 0 0 0 0 0 0 0 0 127 0" result="hardAlpha"/>
<feOffset dy="4"/>
<feGaussianBlur stdDeviation="2"/>
<feComposite in2="hardAlpha" operator="arithmetic" k2="-1" k3="1"/>
<feColorMatrix type="matrix" values="0 0 0 0 0 0 0 0 0 0 0 0 0 0 0 0 0 0 0.25 0"/>
<feBlend mode="normal" in2="shape" result="effect1_innerShadow_2580_32"/>
</filter>
<filter id="filter10_i_2580_32" x="782.359" y="640.594" width="65.5234" height="54.0391" filterUnits="userSpaceOnUse" color-interpolation-filters="sRGB">
<feFlood flood-opacity="0" result="BackgroundImageFix"/>
<feBlend mode="normal" in="SourceGraphic" in2="BackgroundImageFix" result="shape"/>
<feColorMatrix in="SourceAlpha" type="matrix" values="0 0 0 0 0 0 0 0 0 0 0 0 0 0 0 0 0 0 127 0" result="hardAlpha"/>
<feOffset dy="4"/>
<feGaussianBlur stdDeviation="2"/>
<feComposite in2="hardAlpha" operator="arithmetic" k2="-1" k3="1"/>
<feColorMatrix type="matrix" values="0 0 0 0 0 0 0 0 0 0 0 0 0 0 0 0 0 0 0.25 0"/>
<feBlend mode="normal" in2="shape" result="effect1_innerShadow_2580_32"/>
</filter>
<filter id="filter11_i_2580_32" x="904.758" y="640.594" width="68.3984" height="54.0391" filterUnits="userSpaceOnUse" color-interpolation-filters="sRGB">
<feFlood flood-opacity="0" result="BackgroundImageFix"/>
<feBlend mode="normal" in="SourceGraphic" in2="BackgroundImageFix" result="shape"/>
<feColorMatrix in="SourceAlpha" type="matrix" values="0 0 0 0 0 0 0 0 0 0 0 0 0 0 0 0 0 0 127 0" result="hardAlpha"/>
<feOffset dy="4"/>
<feGaussianBlur stdDeviation="2"/>
<feComposite in2="hardAlpha" operator="arithmetic" k2="-1" k3="1"/>
<feColorMatrix type="matrix" values="0 0 0 0 0 0 0 0 0 0 0 0 0 0 0 0 0 0 0.25 0"/>
<feBlend mode="normal" in2="shape" result="effect1_innerShadow_2580_32"/>
</filter>
<filter id="filter12_i_2580_32" x="90.7188" y="640.422" width="69.9688" height="54.2148" filterUnits="userSpaceOnUse" color-interpolation-filters="sRGB">
<feFlood flood-opacity="0" result="BackgroundImageFix"/>
<feBlend mode="normal" in="SourceGraphic" in2="BackgroundImageFix" result="shape"/>
<feColorMatrix in="SourceAlpha" type="matrix" values="0 0 0 0 0 0 0 0 0 0 0 0 0 0 0 0 0 0 127 0" result="hardAlpha"/>
<feOffset dy="4"/>
<feGaussianBlur stdDeviation="2"/>
<feComposite in2="hardAlpha" operator="arithmetic" k2="-1" k3="1"/>
<feColorMatrix type="matrix" values="0 0 0 0 0 0 0 0 0 0 0 0 0 0 0 0 0 0 0.25 0"/>
<feBlend mode="normal" in2="shape" result="effect1_innerShadow_2580_32"/>
</filter>
<filter id="filter13_i_2580_32" x="714.68" y="640.594" width="14.0391" height="54.0391" filterUnits="userSpaceOnUse" color-interpolation-filters="sRGB">
<feFlood flood-opacity="0" result="BackgroundImageFix"/>
<feBlend mode="normal" in="SourceGraphic" in2="BackgroundImageFix" result="shape"/>
<feColorMatrix in="SourceAlpha" type="matrix" values="0 0 0 0 0 0 0 0 0 0 0 0 0 0 0 0 0 0 127 0" result="hardAlpha"/>
<feOffset dy="4"/>
<feGaussianBlur stdDeviation="2"/>
<feComposite in2="hardAlpha" operator="arithmetic" k2="-1" k3="1"/>
<feColorMatrix type="matrix" values="0 0 0 0 0 0 0 0 0 0 0 0 0 0 0 0 0 0 0.25 0"/>
<feBlend mode="normal" in2="shape" result="effect1_innerShadow_2580_32"/>
</filter>
<linearGradient id="paint0_linear_2580_32" x1="140.501" y1="585.002" x2="275.346" y2="443.046" gradientUnits="userSpaceOnUse">
<stop stop-color="#3E131A"/>
<stop offset="0.466346" stop-color="#581C25"/>
<stop offset="1" stop-color="#8A2C38"/>
</linearGradient>
<linearGradient id="paint1_linear_2580_32" x1="268.567" y1="444.59" x2="327.803" y2="585.426" gradientUnits="userSpaceOnUse">
<stop stop-color="#3E131A"/>
<stop offset="0.466346" stop-color="#581C25"/>
<stop offset="1" stop-color="#8A2C38"/>
</linearGradient>
<linearGradient id="paint2_linear_2580_32" x1="565.278" y1="414.359" x2="565.877" y2="663.006" gradientUnits="userSpaceOnUse">
<stop stop-color="#706D6D"/>
<stop offset="0.485577" stop-color="#8F8F8F"/>
<stop offset="1" stop-color="#E4E4E4"/>
</linearGradient>
<linearGradient id="paint3_linear_2580_32" x1="624.318" y1="414.719" x2="624.714" y2="589.879" gradientUnits="userSpaceOnUse">
<stop stop-color="#706D6D"/>
<stop offset="0.485577" stop-color="#8F8F8F"/>
<stop offset="1" stop-color="#E4E4E4"/>
</linearGradient>
<linearGradient id="paint4_linear_2580_32" x1="922.178" y1="592.353" x2="828.99" y2="482.989" gradientUnits="userSpaceOnUse">
<stop stop-color="#3E131A"/>
<stop offset="0.466346" stop-color="#581C25"/>
<stop offset="1" stop-color="#8A2C38"/>
</linearGradient>
<linearGradient id="paint5_linear_2580_32" x1="775.615" y1="549.131" x2="896.955" y2="457.864" gradientUnits="userSpaceOnUse">
<stop stop-color="#3E131A"/>
<stop offset="0.466346" stop-color="#581C25"/>
<stop offset="1" stop-color="#8A2C38"/>
</linearGradient>
<linearGradient id="paint6_linear_2580_32" x1="262.337" y1="640.594" x2="262.337" y2="690.634" gradientUnits="userSpaceOnUse">
<stop stop-color="#727272"/>
<stop offset="1" stop-color="#A9A9A9"/>
</linearGradient>
<linearGradient id="paint7_linear_2580_32" x1="388.714" y1="640.625" x2="388.714" y2="690.633" gradientUnits="userSpaceOnUse">
<stop stop-color="#727272"/>
<stop offset="1" stop-color="#A9A9A9"/>
</linearGradient>
<linearGradient id="paint8_linear_2580_32" x1="519.922" y1="640.594" x2="519.922" y2="690.634" gradientUnits="userSpaceOnUse">
<stop stop-color="#727272"/>
<stop offset="1" stop-color="#A9A9A9"/>
</linearGradient>
<linearGradient id="paint9_linear_2580_32" x1="632.06" y1="640.594" x2="632.06" y2="690.634" gradientUnits="userSpaceOnUse">
<stop stop-color="#727272"/>
<stop offset="1" stop-color="#A9A9A9"/>
</linearGradient>
<linearGradient id="paint10_linear_2580_32" x1="815.119" y1="640.594" x2="815.119" y2="690.634" gradientUnits="userSpaceOnUse">
<stop stop-color="#727272"/>
<stop offset="1" stop-color="#A9A9A9"/>
</linearGradient>
<linearGradient id="paint11_linear_2580_32" x1="938.958" y1="640.594" x2="938.958" y2="690.634" gradientUnits="userSpaceOnUse">
<stop stop-color="#727272"/>
<stop offset="1" stop-color="#A9A9A9"/>
</linearGradient>
<linearGradient id="paint12_linear_2580_32" x1="125.704" y1="640.422" x2="125.704" y2="690.636" gradientUnits="userSpaceOnUse">
<stop stop-color="#727272"/>
<stop offset="1" stop-color="#A9A9A9"/>
</linearGradient>
<linearGradient id="paint13_linear_2580_32" x1="7.02" y1="0" x2="7.02" y2="50.04" gradientUnits="userSpaceOnUse">
<stop stop-color="#727272"/>
<stop offset="1" stop-color="#A9A9A9"/>
</linearGradient>
</defs>
</svg>
